<svg viewBox="0 0 900 600" xmlns="http://www.w3.org/2000/svg" xmlns:xlink="http://www.w3.org/1999/xlink" version="1.1"><path d="M0 111L21.5 113.8C43 116.7 86 122.3 128.8 118.2C171.7 114 214.3 100 257.2 105C300 110 343 134 385.8 141.5C428.7 149 471.3 140 514.2 144.8C557 149.7 600 168.3 642.8 164.8C685.7 161.3 728.3 135.7 771.2 128.7C814 121.7 857 133.3 878.5 139.2L900 145L900 0L878.5 0C857 0 814 0 771.2 0C728.3 0 685.7 0 642.8 0C600 0 557 0 514.2 0C471.3 0 428.7 0 385.8 0C343 0 300 0 257.2 0C214.3 0 171.7 0 128.8 0C86 0 43 0 21.5 0L0 0Z" fill="white" stroke-linecap="round" stroke-linejoin="miter"></path></svg>
